<?xml version="1.0" encoding="UTF-8"?>
<svg version="1.1" xmlns="http://www.w3.org/2000/svg" width="860" height="860">
<path d="M0 0 C1.2051123 0.17160645 2.41022461 0.34321289 3.65185547 0.52001953 C43.49896191 6.27714182 82.3234747 17.32828257 119 34 C120.01030273 34.45842285 121.02060547 34.9168457 122.06152344 35.38916016 C156.6383139 51.23015486 188.98080796 71.35297574 218 96 C219.0584245 96.8843172 220.11702863 97.76841943 221.17578125 98.65234375 C234.46651006 109.82456471 248.08370709 121.57958265 259.375 134.8125 C261.94748973 137.80230473 264.57990115 140.72209893 267.25 143.625 C272.3068307 149.23799651 276.95675868 155.12720023 281.55419922 161.1171875 C282.51603689 162.36975287 283.48119898 163.61977262 284.44970703 164.8671875 C331.66510075 225.73731728 360.87959794 299.67769562 370 376 C370.08720306 376.71022308 370.17440613 377.42044617 370.26425171 378.15219116 C372.16906232 394.07211766 372.35882952 409.91865636 372.3125 425.9375 C372.30976578 427.89613983 372.30976578 427.89613983 372.30697632 429.89434814 C372.26256251 448.77643954 371.896873 467.31040639 369 486 C368.82307617 487.18964355 368.64615234 488.37928711 368.46386719 489.60498047 C355.5772043 574.7259515 318.41567614 654.89160031 259.734375 718.04296875 C257.92943999 719.98551405 256.15614723 721.94617624 254.390625 723.92578125 C247.04798184 732.12651437 239.17607203 739.63450466 231 747 C230.07912598 747.82999512 230.07912598 747.82999512 229.13964844 748.67675781 C219.49003202 757.31981499 209.39491366 765.27634011 199 773 C198.28473145 773.53625 197.56946289 774.0725 196.83251953 774.625 C139.28026545 817.67600058 70.91527683 843.90175561 0 854 C-1.10069824 854.16516113 -2.20139648 854.33032227 -3.33544922 854.50048828 C-39.89157471 859.80428023 -79.48762348 859.45217145 -116 854 C-117.78374023 853.75056641 -117.78374023 853.75056641 -119.60351562 853.49609375 C-158.96133923 847.92366985 -198.37268201 837.10077036 -234.42919922 820.20458984 C-237.02836783 818.9867078 -239.63985866 817.79883984 -242.25390625 816.61328125 C-273.0716068 802.47524922 -301.88443645 783.94426613 -328.125 762.5 C-328.80240234 761.94812012 -329.47980469 761.39624023 -330.17773438 760.82763672 C-334.76207299 757.07035824 -339.23432926 753.21313684 -343.59375 749.1953125 C-344.93073142 747.97553399 -346.2760605 746.76416348 -347.65209961 745.58862305 C-353.38252446 740.68448304 -358.72732524 735.42542432 -364.0456543 730.0847168 C-365.5599258 728.56508332 -367.0794743 727.05087483 -368.59960938 725.53710938 C-373.94271059 720.19837143 -379.13408865 714.78240192 -384 709 C-384.53455811 708.372146 -385.06911621 707.74429199 -385.61987305 707.09741211 C-399.31790316 690.92297136 -411.80167232 673.99538955 -423 656 C-423.55300781 655.12142334 -423.55300781 655.12142334 -424.1171875 654.22509766 C-459.4851687 597.86544514 -480.16962914 533.98481126 -487 468 C-487.08547592 467.2021257 -487.17095184 466.4042514 -487.25901794 465.5821991 C-487.97203285 458.47573303 -488.18992006 451.42462967 -488.23828125 444.28515625 C-488.24812042 443.0885437 -488.25795959 441.89193115 -488.26809692 440.65905762 C-488.44043201 414.23605294 -488.35539881 388.1248301 -484 362 C-483.87884827 361.26555664 -483.75769653 360.53111328 -483.63287354 359.77441406 C-477.21663338 321.21726805 -466.35912336 284.13551989 -450.14208984 248.51025391 C-449.09763347 246.21459327 -448.07239056 243.91135671 -447.05078125 241.60546875 C-430.72313598 205.29377782 -407.1779247 170.94366859 -380.3359375 141.58203125 C-379.06904636 140.18167165 -377.80816092 138.77529593 -376.58203125 137.33911133 C-371.5920456 131.50969586 -366.24516967 126.05902277 -360.82226562 120.63696289 C-359.26139673 119.07391266 -357.70872112 117.50302635 -356.15625 115.93164062 C-349.76112267 109.50112409 -343.10363598 103.65286275 -336 98 C-334.91001067 97.07681206 -333.82538361 96.1471923 -332.75 95.20703125 C-311.48112692 76.68740171 -287.66356286 61.5553411 -263 48 C-262.12069824 47.51176758 -261.24139648 47.02353516 -260.33544922 46.52050781 C-215.60117236 21.8209999 -166.46015727 7.18546163 -116 0 C-114.89930176 -0.16516113 -113.79860352 -0.33032227 -112.66455078 -0.50048828 C-76.12027527 -5.80256096 -36.49928495 -5.47676286 0 0 Z " fill="#E6E9ED" transform="translate(488,3)"/>
<path d="M0 0 C4.8117912 1.65206247 9.64009748 3.25364736 14.46759033 4.85913086 C18.4263874 6.17581331 22.38424627 7.49503837 26.33886719 8.82421875 C33.90544859 11.36426639 41.48242695 13.82751253 49.12011719 16.14746094 C54.5118802 17.81963164 59.85764496 19.62858053 65.20748901 21.42959595 C75.05698155 24.74400009 84.91726963 28.00204272 94.85058594 31.05761719 C101.7546807 33.21125936 108.59843769 35.5481765 115.45141602 37.85839844 C119.9028005 39.35197723 124.36669872 40.79154427 128.85180664 42.18041992 C132.13339628 43.20119494 135.40615441 44.24901443 138.67871094 45.29833984 C140.46552437 45.8676223 142.25467944 46.42959822 144.04589844 46.98486328 C146.74890471 47.82666492 149.4405329 48.69874222 152.13183594 49.57714844 C152.96110596 49.82883789 153.79037598 50.08052734 154.64477539 50.33984375 C160.43799374 52.27586546 164.05437336 54.9196104 167.31933594 60.13964844 C169.40678179 64.36079466 169.6068818 68.20233543 169.58676147 72.82429504 C169.59129259 73.59063049 169.5958237 74.35696593 169.60049212 75.14652365 C169.61313681 77.71045559 169.61151571 80.27417513 169.60986328 82.83813477 C169.61584851 84.6780881 169.62265405 86.51803893 169.63021851 88.35798645 C169.64788681 93.35394939 169.65257425 98.34984381 169.65385008 103.34583497 C169.65527183 106.46814515 169.65954189 109.59043791 169.66484451 112.71274376 C169.68334792 123.60839316 169.69151478 134.50399362 169.68994141 145.3996582 C169.6887401 155.55108554 169.70983959 165.70230023 169.74142873 175.85367376 C169.7675938 184.57315819 169.77830859 193.29257319 169.77703059 202.01209658 C169.776521 207.21807402 169.78220246 212.42386251 169.80338669 217.6298008 C169.82277274 222.52758003 169.82289095 227.42499014 169.80835342 232.32278252 C169.80626465 234.11743332 169.81097031 235.91210725 169.82307434 237.70671844 C169.83856382 240.16292703 169.8291952 242.61786864 169.81381226 245.0740509 C169.82409938 245.77883585 169.83438651 246.4836208 169.84498537 247.20976287 C169.76379397 253.10406538 167.90159844 258.24702453 163.96610695 262.65552163 C160.53383393 265.73009857 157.0024201 267.26820563 152.66235352 268.66333008 C152.02565735 268.87221359 151.38896118 269.08109711 150.73297119 269.29631042 C148.64722825 269.97712511 146.55584731 270.63843138 144.46386719 271.29980469 C142.99623012 271.77506375 141.52900713 272.25160323 140.06217957 272.72935486 C136.20854612 273.981011 132.34991693 275.21647414 128.48986816 276.44818115 C123.82909153 277.93843776 119.17412684 279.44672198 114.51860332 280.95329189 C110.88964005 282.12742585 107.25984985 283.29869475 103.62690735 284.46046448 C96.93643911 286.60501977 90.30162113 288.84386317 83.7118988 291.28132629 C80.31633902 292.49946948 76.89292385 293.49026269 73.42089844 294.47167969 C63.43185377 297.34619188 53.5689924 300.58527384 43.69433594 303.82714844 C40.85677256 304.75559831 38.01890825 305.68312411 35.18101501 306.61056519 C33.28709734 307.22953733 31.39326739 307.84877796 29.49952698 308.46829224 C19.57131093 311.71506419 9.62968559 314.91977977 -0.31396484 318.11889648 C-1.4726709 318.49183838 -2.63137695 318.86478027 -3.82519531 319.24902344 C-4.8188208 319.56838867 -5.81244629 319.88775391 -6.83618164 320.21679688 C-8.85038354 320.87027582 -10.85747281 321.54586846 -12.85913086 322.23681641 C-18.84506987 324.15219258 -25.34273184 324.22202447 -31.05566406 321.57714844 C-37.85546188 315.26305046 -42.91806913 307.7096983 -48.24169922 300.16992188 C-50.7842298 296.58259844 -53.3566187 293.016897 -55.93066406 289.45214844 C-56.47537354 288.69764404 -57.02008301 287.94313965 -57.58129883 287.16577148 C-62.16370152 280.8307048 -66.80139575 274.53730619 -71.44702148 268.24853516 C-77.04451922 260.66362696 -82.56451262 253.02409536 -88.07177734 245.37353516 C-90.77078524 241.62605075 -93.475979 237.88303643 -96.18066406 234.13964844 C-99.4219786 229.65354464 -102.6620836 225.16660013 -105.89550781 220.67480469 C-112.70939266 211.21469081 -119.59262435 201.80851189 -126.51660156 192.42871094 C-130.26434783 187.35119071 -133.99229645 182.26055169 -137.68066406 177.13964844 C-138.34066406 176.23472656 -139.00066406 175.32980469 -139.68066406 174.39746094 C-140.32003906 173.50800781 -140.95941406 172.61855469 -141.61816406 171.70214844 C-142.1840625 170.9196875 -142.74996094 170.13722656 -143.33300781 169.33105469 C-145.98430085 165.01982166 -146.39249934 160.11402117 -145.68066406 155.13964844 C-143.56680093 149.0641397 -140.18046871 144.41642049 -136.30566406 139.32714844 C-135.03793973 137.63503711 -133.77103137 135.94231419 -132.50488281 134.24902344 C-131.54461182 132.96995117 -131.54461182 132.96995117 -130.56494141 131.66503906 C-127.70606451 127.83344764 -124.90940934 123.95814986 -122.11816406 120.07714844 C-121.58658691 119.33940186 -121.05500977 118.60165527 -120.50732422 117.84155273 C-119.4344123 116.3524446 -118.36182013 114.86310605 -117.28955078 113.37353516 C-114.59054278 109.6260506 -111.88527522 105.88308999 -109.18066406 102.13964844 C-108.09730102 100.63966989 -107.01396768 99.1396699 -105.93066406 97.63964844 C-103.7639974 94.63964844 -101.59733073 91.63964844 -99.43066406 88.63964844 C-98.8943335 87.8969873 -98.35800293 87.15432617 -97.80541992 86.38916016 C-96.72309058 84.89065038 -95.64057132 83.39227774 -94.55786133 81.89404297 C-91.83258562 78.12234992 -89.11075169 74.34825867 -86.39550781 70.56933594 C-81.2046511 63.35187485 -75.97887502 56.16960629 -70.61816406 49.07714844 C-66.57755909 43.72954156 -62.65096723 38.31680795 -58.80566406 32.82714844 C-54.39002073 26.5299553 -49.91357124 20.28144121 -45.36816406 14.07714844 C-44.80564941 13.30395264 -44.24313477 12.53075684 -43.66357422 11.73413086 C-30.24879452 -6.50041293 -21.2673022 -7.34848792 0 0 Z " fill="#434B53" transform="translate(397.6806640625,270.8603515625)"/>
<path d="M0 0 C3.4841233 2.36270329 6.80514165 4.91315582 10.125 7.5 C11.05352783 8.21615479 11.98205566 8.93230957 12.9387207 9.67016602 C23.69204845 18.01079826 33.96440649 26.80824018 44 36 C44.51594727 36.47083008 45.03189453 36.94166016 45.56347656 37.42675781 C54.13309688 45.25163133 62.59804941 53.07329232 70.16796875 61.890625 C72.15311587 64.17629546 74.2003983 66.39701378 76.25 68.625 C81.3068307 74.23799651 85.95675868 80.12720023 90.55419922 86.1171875 C91.51603689 87.36975287 92.48119898 88.61977262 93.44970703 89.8671875 C121.368928 125.86067331 164.70121818 186.81773466 163.484375 234.03125 C162.4442653 240.4061159 158.90384423 245.18470666 154.3125 249.5625 C149.11810985 252.79144523 143.92535924 252.59865857 138 252 C130.19847848 250.17360949 122.62861328 247.55899982 115.03990173 245.00544739 C104.11852823 241.33125583 93.14277347 237.83258181 82.16256714 234.33901978 C66.08398741 229.22130305 50.01911662 224.07435024 34.03466797 218.66903687 C25.77366412 215.8764411 17.48509833 213.19718502 9.15625 210.61328125 C8.22502823 210.32316666 7.29380646 210.03305206 6.33436584 209.73414612 C1.76011727 208.30929492 -2.81690612 206.89527549 -7.40063477 205.5012207 C-9.07063159 204.98308823 -10.74047937 204.46447505 -12.41015625 203.9453125 C-13.53611206 203.60993217 -13.53611206 203.60993217 -14.68481445 203.26777649 C-22.56545159 200.78992829 -28.94426988 197.46254342 -33 190 C-34.17537349 186.47387952 -34.13488136 183.68330139 -34.14717102 179.96000671 C-34.15084771 179.23888807 -34.1545244 178.51776942 -34.1583125 177.77479869 C-34.16934885 175.35205589 -34.17319307 172.92935598 -34.17700195 170.5065918 C-34.18326658 168.77206282 -34.18991337 167.03753519 -34.19691467 165.30300903 C-34.21432281 160.58599677 -34.22487566 155.86899465 -34.2331202 151.15195823 C-34.23827016 148.20556509 -34.24434585 145.25917511 -34.25063133 142.31278419 C-34.26968185 133.0959819 -34.28391398 123.87918763 -34.2922433 114.66236943 C-34.30201993 104.01956032 -34.32835116 93.37695896 -34.36874419 82.73422307 C-34.3988885 74.50993124 -34.41371052 66.28569903 -34.41702431 58.06135303 C-34.41937646 53.14826259 -34.42835852 48.23539413 -34.45348549 43.3223629 C-34.47674214 38.70040734 -34.48100917 34.07882031 -34.47072411 29.45682144 C-34.47022807 27.76130384 -34.47656849 26.06576824 -34.49028015 24.37030602 C-34.5079679 22.05341002 -34.50090949 19.73784113 -34.48774719 17.42094421 C-34.49013555 16.12511256 -34.4925239 14.82928091 -34.49498463 13.49418163 C-33.69330207 7.83496655 -30.34407921 3.59937992 -26 0 C-17.92012718 -4.71325915 -8.14267961 -4.61016403 0 0 Z " fill="#434B53" transform="translate(679,78)"/>
<path d="M0 0 C4.56519767 3.81985928 9.72833824 9.81656929 10.27880859 15.98730469 C10.42345326 23.57558652 9.25327471 29.70000386 6.6875 36.8125 C6.32881836 37.84189697 5.97013672 38.87129395 5.60058594 39.93188477 C-1.54335891 60.0705245 -10.34329308 79.48360908 -19.9375 98.5625 C-20.39286133 99.4714502 -20.84822266 100.38040039 -21.31738281 101.31689453 C-33.2079086 124.76597712 -48.32044307 147.1965076 -64.9375 167.5625 C-65.64543701 168.43165039 -65.64543701 168.43165039 -66.36767578 169.31835938 C-72.08387999 176.28885985 -78.06774155 183.00272046 -84.203125 189.60546875 C-86.00806001 191.54801405 -87.78135277 193.50867624 -89.546875 195.48828125 C-96.88951816 203.68901437 -104.76142797 211.19700466 -112.9375 218.5625 C-113.55141602 219.11583008 -114.16533203 219.66916016 -114.79785156 220.23925781 C-123.19582846 227.76123499 -131.89508199 234.79952823 -140.94140625 241.52734375 C-143.4386003 243.39094781 -145.82825748 245.30396085 -148.15234375 247.37890625 C-154.83520617 253.11091845 -159.65901292 254.71399913 -168.51171875 254.1171875 C-175.92229407 252.91729959 -180.04471761 250.05520914 -184.80859375 244.34375 C-187.34934916 240.33480721 -187.06714627 236.12204348 -187.07794189 231.48490906 C-187.08091302 230.77180866 -187.08388414 230.05870825 -187.0869453 229.32399875 C-187.09561741 226.93433037 -187.09713928 224.54471217 -187.09863281 222.1550293 C-187.10326202 220.44167982 -187.10828682 218.72833138 -187.11367798 217.01498413 C-187.12679359 212.35994116 -187.13324523 207.7049126 -187.13768864 203.04985404 C-187.14062055 200.14113722 -187.14472557 197.23242433 -187.14919281 194.32370949 C-187.16286516 185.22170235 -187.17253326 176.1197042 -187.1763947 167.0176875 C-187.18087579 156.51303678 -187.19842714 146.00851616 -187.2273953 135.503905 C-187.24901399 127.38233571 -187.25909907 119.26080303 -187.26043582 111.13920528 C-187.26148366 106.28929792 -187.26738703 101.4395129 -187.28525543 96.58963585 C-187.30173947 92.02680315 -187.30389 87.46418472 -187.29511642 82.90133286 C-187.29434625 81.22881687 -187.29868626 79.55628935 -187.30857468 77.88380241 C-187.32130561 75.59596146 -187.3154117 73.30887811 -187.30499268 71.02104187 C-187.30645924 69.74217952 -187.3079258 68.46331717 -187.3094368 67.14570141 C-186.74888228 61.74537597 -185.19567742 57.91504073 -181.4375 53.875 C-172.56765095 47.23263488 -159.03926106 44.94586076 -148.5625 41.5625 C-146.78696198 40.98734567 -145.01149114 40.41198393 -143.23608398 39.83642578 C-136.96720186 37.80482306 -130.69689112 35.7776475 -124.42645264 33.75085449 C-118.9505951 31.98088866 -113.47500296 30.21010769 -108 28.4375 C-107.23710663 28.19055389 -106.47421326 27.94360779 -105.6882019 27.68917847 C-95.65326664 24.4390523 -85.6345423 21.14410906 -75.63192749 17.79586792 C-73.63656253 17.12886508 -71.64034548 16.464482 -69.64379883 15.80102539 C-68.29246619 15.3517682 -66.941148 14.90246757 -65.58984375 14.453125 C-64.570364 14.11419472 -64.570364 14.11419472 -63.5302887 13.76841736 C-58.72942874 12.16882415 -53.93842291 10.54166141 -49.1497345 8.90602112 C-45.54887711 7.68064667 -41.94254703 6.47194191 -38.33511353 5.26608276 C-36.59556429 4.68061879 -34.85830114 4.08830938 -33.12362671 3.48855591 C-9.75737842 -4.58087945 -9.75737842 -4.58087945 0 0 Z " fill="#434B53" transform="translate(831.9375,531.4375)"/>
<path d="M0 0 C0.84819305 -0.01221588 1.69638611 -0.02443176 2.57028198 -0.03701782 C5.003123 -0.06669131 7.43421364 -0.0673138 9.8671875 -0.05859375 C10.5836998 -0.0696817 11.3002121 -0.08076965 12.03843689 -0.0921936 C18.4268695 -0.00600886 23.52925947 2.20353515 28.3671875 6.3671875 C32.72892672 11.56370935 35.39806002 15.63936172 35.1875 22.625 C34.24004138 28.8555703 30.75701871 33.44434234 27.125 38.4375 C26.38660889 39.45529541 26.38660889 39.45529541 25.63330078 40.49365234 C22.71363288 44.50174304 19.76781388 48.48979335 16.80859375 52.46875 C13.3535995 57.11764978 9.94783432 61.80020786 6.5625 66.5 C6.03060059 67.23806885 5.49870117 67.9761377 4.95068359 68.73657227 C3.87815693 70.22539793 2.80589061 71.71441116 1.73388672 73.20361328 C-1.50277976 77.69761909 -4.74781357 82.18558801 -7.99145508 86.67456055 C-10.75282595 90.49681119 -13.51157453 94.32090812 -16.265625 98.1484375 C-20.9387029 104.63856059 -25.60954376 111.12361815 -30.4375 117.5 C-33.95924353 122.15924098 -37.33706622 126.90484428 -40.6875 131.6875 C-46.12834328 139.44821737 -51.76534774 147.04243479 -57.49072266 154.59472656 C-58.8174422 156.36087808 -60.1216882 158.14111623 -61.41796875 159.9296875 C-70.44093296 172.29281099 -70.44093296 172.29281099 -76.875 174.4375 C-87.3700386 176.05549556 -96.84063515 171.76705286 -106.5 168.25 C-109.760549 167.08283859 -113.02441279 165.92516635 -116.2890625 164.76953125 C-117.49021698 164.34179916 -117.49021698 164.34179916 -118.71563721 163.90542603 C-124.78705961 161.76372412 -130.91012063 159.89151857 -137.09780884 158.11799622 C-143.20004349 156.36624617 -149.14438121 154.30539356 -155.1015625 152.12109375 C-160.21100532 150.28408671 -165.36653842 148.6858808 -170.58203125 147.1796875 C-181.32728181 144.06976583 -191.93748548 140.55714395 -202.5625 137.0625 C-205.48978228 136.10160101 -208.41731504 135.14147876 -211.34524536 134.18255615 C-213.28273013 133.54746613 -215.21964579 132.91063718 -217.15597534 132.27203369 C-222.08418568 130.65208935 -227.02095507 129.07806619 -231.98681641 127.57714844 C-232.9782515 127.27384613 -233.96968658 126.97054382 -234.99116516 126.65805054 C-236.86528635 126.08703332 -238.74256427 125.52622987 -240.62345886 124.97793579 C-247.47605108 122.87834802 -253.35084523 120.22470756 -257.3125 113.9375 C-259.70669588 108.39634797 -260.0795391 102.30477108 -258.875 96.4375 C-255.44502157 88.64893729 -250.72766299 84.11890387 -243.6875 79.5625 C-242.80602295 78.97082031 -241.9245459 78.37914063 -241.01635742 77.76953125 C-238.31696163 75.96913088 -235.5986811 74.20088324 -232.875 72.4375 C-232.08867187 71.91897461 -231.30234375 71.40044922 -230.4921875 70.86621094 C-162.0830867 25.75969473 -82.01144448 0.64639092 0 0 Z " fill="#434B53" transform="translate(422.875,-0.4375)"/>
<path d="M0 0 C9.28446962 6.80861105 15.5195817 17.39404802 22.11132812 26.671875 C24.80714063 30.46024986 27.52767205 34.23065475 30.25 38 C31.04664063 39.10444458 31.04664063 39.10444458 31.859375 40.23120117 C35.87127023 45.78432478 39.92869382 51.30283478 44 56.8125 C48.81644216 63.33118079 53.57272935 69.8869828 58.26953125 76.4921875 C65.6863477 86.91979082 73.20965666 97.26990681 80.8125 107.5625 C86.5801395 115.37102126 92.31193091 123.20329114 97.9453125 131.109375 C99.63058843 133.46499408 101.34179765 135.70883707 103.1796875 137.953125 C107.65011324 143.51871528 108.78912473 147.83487966 108.3671875 155.0078125 C107.04079048 162.31233696 102.71342424 166.88267866 96.8125 171.0625 C92.54532938 173.23343316 88.54254716 173.36819026 83.84765625 173.36328125 C83.07070404 173.36888062 82.29375183 173.37447998 81.49325562 173.38024902 C78.95364272 173.39221007 76.41461306 173.38584226 73.875 173.375 C73.00247589 173.37317719 72.12995178 173.37135437 71.23098755 173.36947632 C54.94351374 173.31232859 38.9621691 172.29034302 22.8125 170.0625 C21.59868652 169.89621094 20.38487305 169.72992187 19.13427734 169.55859375 C-20.19406543 163.97790656 -59.58657111 153.15090435 -95.61669922 136.26708984 C-98.21586783 135.0492078 -100.82735866 133.86133984 -103.44140625 132.67578125 C-126.72440867 121.99439269 -148.18179157 108.63408794 -169.1875 94.0625 C-170.21979736 93.3506958 -171.25209473 92.6388916 -172.31567383 91.90551758 C-173.29560303 91.21482178 -174.27553223 90.52412598 -175.28515625 89.8125 C-176.15406494 89.20277344 -177.02297363 88.59304688 -177.91821289 87.96484375 C-182.81363779 83.86100827 -184.72213323 79.05102724 -185.6875 72.8515625 C-186.06527212 66.09888592 -185.23178316 61.21845957 -180.9921875 55.85546875 C-175.45055346 50.34981935 -167.68984193 48.85982445 -160.3984375 46.65625 C-153.82404891 44.66162512 -147.28809675 42.54741865 -140.75 40.4375 C-140.09532745 40.22653687 -139.44065491 40.01557373 -138.7661438 39.79821777 C-126.64568049 35.89013952 -114.56050168 31.87889223 -102.49047852 27.81787109 C-101.83206467 27.59697815 -101.17365082 27.37608521 -100.49528503 27.14849854 C-98.72999452 26.55615117 -96.96531164 25.96199375 -95.20068359 25.36767578 C-91.82754895 24.25333666 -88.43366747 23.21256372 -85.03662109 22.17358398 C-78.39932445 20.13980078 -71.79851913 18.00513981 -65.203125 15.83984375 C-64.02208191 15.45308975 -62.84103882 15.06633575 -61.62420654 14.66786194 C-57.89494799 13.44632577 -54.16622522 12.22316307 -50.4375 11 C-47.92321026 10.176331 -45.40888761 9.35276247 -42.89453125 8.52929688 C-38.28008437 7.01742207 -33.66565073 5.50550796 -29.05175781 3.99194336 C-28.05316238 3.6647229 -27.05456696 3.33750244 -26.02571106 3.00036621 C-22.68181442 1.89539988 -19.34812463 0.76157257 -16.0186615 -0.38612366 C-10.76256638 -1.96877298 -5.20094169 -1.52968873 0 0 Z " fill="#444B53" transform="translate(349.1875,686.9375)"/>
<path d="M0 0 C8.28907573 6.07865554 13.74794837 15.06812437 19.54296875 23.40234375 C22.8626974 28.16359956 26.29420264 32.83694554 29.75 37.5 C35.96540786 45.89733101 42.10007799 54.34972829 48.20361328 62.82861328 C50.90262118 66.57609769 53.60781494 70.31911201 56.3125 74.0625 C59.55381453 78.54860379 62.79391954 83.03554831 66.02734375 87.52734375 C71.5805493 95.23713398 77.16718004 102.91984553 82.8125 110.5625 C87.52190943 116.9424814 92.2169092 123.3324237 96.875 129.75 C97.39900391 130.46800781 97.92300781 131.18601562 98.46289062 131.92578125 C99.93356588 133.95771032 101.38116827 136.00268759 102.8125 138.0625 C103.29219238 138.75255127 103.77188477 139.44260254 104.26611328 140.15356445 C108.25884089 146.16968181 109.22450729 150.8557615 107.8125 158.0625 C105.99468891 162.14968035 103.53430494 165.52756193 100.8125 169.0625 C100.04035156 170.08085937 99.26820313 171.09921875 98.47265625 172.1484375 C96.79798991 174.34201926 95.10574131 176.52093058 93.40625 178.6953125 C89.5033694 183.71954312 85.86831771 188.93430424 82.19140625 194.12451172 C79.64672434 197.7009432 77.07224716 201.25586922 74.5 204.8125 C73.38801738 206.35025792 72.27603824 207.88801836 71.1640625 209.42578125 C70.60879883 210.1935791 70.05353516 210.96137695 69.48144531 211.75244141 C67.84731701 214.01430829 66.2161287 216.27826308 64.5859375 218.54296875 C58.38834103 227.14833239 52.13555253 235.70977096 45.83227539 244.23803711 C42.05028623 249.36210751 38.32413674 254.52121247 34.63989258 259.71582031 C30.501194 265.53436832 26.25326897 271.27165312 21.99975586 277.0065918 C19.26677432 280.69878967 16.55675378 284.39908279 13.94140625 288.17578125 C3.87791836 302.70736055 3.87791836 302.70736055 -3.1875 305.0625 C-11.17950421 305.99334908 -17.56294754 304.75901107 -24.1875 300.0625 C-27.1875 296.61513158 -27.1875 296.61513158 -27.1875 294.0625 C-27.8475 294.0625 -28.5075 294.0625 -29.1875 294.0625 C-39.92685863 261.01224937 -47.55738308 227.6725195 -51.1875 193.0625 C-51.27075027 192.28755692 -51.35400055 191.51261383 -51.43977356 190.71418762 C-52.15481388 183.58410378 -52.37725977 176.51079244 -52.42578125 169.34765625 C-52.43562042 168.1510437 -52.44545959 166.95443115 -52.45559692 165.72155762 C-52.62793201 139.29855294 -52.54289881 113.1873301 -48.1875 87.0625 C-48.06634827 86.32805664 -47.94519653 85.59361328 -47.82037354 84.83691406 C-43.58255157 59.37054803 -37.54291578 34.50931782 -29.1875 10.0625 C-28.5275 10.0625 -27.8675 10.0625 -27.1875 10.0625 C-27.0225 9.340625 -26.8575 8.61875 -26.6875 7.875 C-21.74433876 -1.39342733 -9.18699293 -2.70205674 0 0 Z " fill="#434B53" transform="translate(52.1875,277.9375)"/>
<path d="M0 0 C4.56519767 3.81985928 9.72833824 9.81656929 10.27880859 15.98730469 C10.42345326 23.57558652 9.25327471 29.70000386 6.6875 36.8125 C6.32881836 37.84189697 5.97013672 38.87129395 5.60058594 39.93188477 C-1.54335891 60.0705245 -10.34329308 79.48360908 -19.9375 98.5625 C-20.39286133 99.4714502 -20.84822266 100.38040039 -21.31738281 101.31689453 C-33.2079086 124.76597712 -48.32044307 147.1965076 -64.9375 167.5625 C-65.64543701 168.43165039 -65.64543701 168.43165039 -66.36767578 169.31835938 C-72.08387999 176.28885985 -78.06774155 183.00272046 -84.203125 189.60546875 C-86.00806001 191.54801405 -87.78135277 193.50867624 -89.546875 195.48828125 C-96.88951816 203.68901437 -104.76142797 211.19700466 -112.9375 218.5625 C-113.55141602 219.11583008 -114.16533203 219.66916016 -114.79785156 220.23925781 C-123.19582846 227.76123499 -131.89508199 234.79952823 -140.94140625 241.52734375 C-143.4386003 243.39094781 -145.82825748 245.30396085 -148.15234375 247.37890625 C-154.83488205 253.11064045 -159.65636188 254.70938035 -168.5078125 254.12109375 C-176.27394474 252.85622255 -180.36735479 249.84644966 -184.9375 243.5625 C-183.2875 243.5625 -181.6375 243.5625 -179.9375 243.5625 C-179.9375 242.9025 -179.9375 242.2425 -179.9375 241.5625 C-178.54257469 240.61054334 -177.14182719 239.66617035 -175.71533203 238.76220703 C-171.88256437 236.17579941 -168.51972572 232.95351971 -165.06054688 229.89648438 C-162.54429567 227.69993211 -160.19514013 225.7157018 -157.31640625 224.00390625 C-154.41575423 222.24636833 -152.29243765 219.96644056 -149.9375 217.5625 C-148.80768532 216.43490398 -147.67622596 215.30895436 -146.54345703 214.18432617 C-143.11751588 210.77628693 -139.69471177 207.36511522 -136.27294922 203.95288086 C-134.80379816 202.48876003 -133.33375103 201.02553779 -131.86279297 199.56323242 C-129.72121444 197.43389011 -127.58297668 195.30123984 -125.4453125 193.16796875 C-124.79716583 192.52498337 -124.14901917 191.88199799 -123.48123169 191.2195282 C-116.90359239 184.64268509 -110.94179026 177.73307171 -105.41796875 170.25 C-104.92941406 169.693125 -104.44085937 169.13625 -103.9375 168.5625 C-103.2775 168.5625 -102.6175 168.5625 -101.9375 168.5625 C-101.52951172 167.43908203 -101.52951172 167.43908203 -101.11328125 166.29296875 C-100.00027193 163.70827269 -98.90532078 162.02490636 -97.125 159.875 C-93.32586566 155.12809008 -89.74764754 150.23938842 -86.1875 145.3125 C-85.6205542 144.53173096 -85.0536084 143.75096191 -84.46948242 142.9465332 C-81.79161261 139.23543502 -79.20140795 135.54638996 -76.9375 131.5625 C-74.2539557 126.86629747 -74.2539557 126.86629747 -72.375 125.0625 C-70.51010106 123.1165185 -69.82273742 121.08202188 -68.9375 118.5625 C-68.2775 118.5625 -67.6175 118.5625 -66.9375 118.5625 C-66.8446875 117.5725 -66.8446875 117.5725 -66.75 116.5625 C-65.60982822 112.35263496 -63.29598488 109.20026587 -60.9375 105.5625 C-55.47304034 96.90088562 -51.50116334 88.11781709 -47.9375 78.5625 C-47.2775 78.5625 -46.6175 78.5625 -45.9375 78.5625 C-45.999375 77.881875 -46.06125 77.20125 -46.125 76.5 C-45.87881737 72.64313875 -44.57947838 70.05170406 -42.9375 66.5625 C-42.2775 66.5625 -41.6175 66.5625 -40.9375 66.5625 C-40.56625 64.83 -40.56625 64.83 -40.1875 63.0625 C-39.42760849 59.9795116 -38.42711649 57.36386832 -36.9375 54.5625 C-35.20996518 51.29229571 -34.23691967 48.24563143 -33.43359375 44.6484375 C-32.23769896 39.6200295 -30.81077198 34.87240796 -27.9375 30.5625 C-27.47346139 29.04381243 -27.07332864 27.50493879 -26.71875 25.95703125 C-26.40357422 24.60448242 -26.40357422 24.60448242 -26.08203125 23.22460938 C-25.86933594 22.28423828 -25.65664063 21.34386719 -25.4375 20.375 C-25.01079901 18.52725541 -24.58372105 16.67959784 -24.15625 14.83203125 C-23.95257812 13.94467285 -23.74890625 13.05731445 -23.5390625 12.14306641 C-22.71429175 8.60498732 -21.83125585 5.08373253 -20.9375 1.5625 C-21.9275 1.0675 -21.9275 1.0675 -22.9375 0.5625 C-15.93443062 -2.07023285 -7.00184416 -3.4227765 0 0 Z " fill="#696F76" transform="translate(831.9375,531.4375)"/>
<path d="M0 0 C1.49466797 -0.03867188 1.49466797 -0.03867188 3.01953125 -0.078125 C11.26097807 0.77548971 16.97776666 5.81395564 23.3125 10.75 C24.24102783 11.46615479 25.16955566 12.18230957 26.1262207 12.92016602 C36.87954845 21.26079826 47.15190649 30.05824018 57.1875 39.25 C57.70344727 39.72083008 58.21939453 40.19166016 58.75097656 40.67675781 C67.32059688 48.50163133 75.78554941 56.32329232 83.35546875 65.140625 C85.34061587 67.42629546 87.3878983 69.64701378 89.4375 71.875 C94.4943307 77.48799651 99.14425868 83.37720023 103.74169922 89.3671875 C104.70353689 90.61975287 105.66869898 91.86977262 106.63720703 93.1171875 C134.556428 129.11067331 177.88871818 190.06773466 176.671875 237.28125 C175.6317653 243.6561159 172.09134423 248.43470666 167.5 252.8125 C161.88946532 256.30012966 155.03594676 255.94151778 148.6875 254.80078125 C146.84033559 254.33569164 145.01103332 253.80050063 143.1875 253.25 C143.8475 252.92 144.5075 252.59 145.1875 252.25 C144.86136719 251.02925781 144.53523437 249.80851563 144.19921875 248.55078125 C143.75739243 246.88813241 143.31601761 245.22536354 142.875 243.5625 C142.64498291 242.69705566 142.41496582 241.83161133 142.17797852 240.93994141 C140.8813393 236.02083633 139.68992729 231.10057696 138.625 226.125 C137.62896772 221.71479042 136.30874473 217.87626768 134.3515625 213.8125 C132.809682 210.41829326 131.53710361 206.93374441 130.25 203.4375 C126.41463704 193.11482638 122.21326476 183.14021768 117.20629883 173.33007812 C114.94466793 168.86766738 112.91939179 164.37039157 111 159.75 C109.12997234 155.28915235 107.15015724 151.24947633 104.46484375 147.234375 C102.91645393 144.82892537 101.59303476 142.33810303 100.25 139.8125 C97.94995893 135.5418355 95.44293609 131.52747776 92.7109375 127.5234375 C91.01311275 124.98976057 89.40136427 122.41585037 87.8125 119.8125 C87.30976562 118.98878906 86.80703125 118.16507812 86.2890625 117.31640625 C85.1875 115.25 85.1875 115.25 85.1875 113.25 C84.5275 113.25 83.8675 113.25 83.1875 113.25 C81.2421875 110.94921875 81.2421875 110.94921875 79.0625 107.9375 C77.97582031 106.45830078 77.97582031 106.45830078 76.8671875 104.94921875 C75.1875 102.25 75.1875 102.25 75.1875 99.25 C74.589375 99.023125 73.99125 98.79625 73.375 98.5625 C70.56013316 96.87357989 69.75329901 95.12063152 68.1875 92.25 C66.22816198 89.04974791 64.66406957 86.61934142 61.6875 84.3125 C59.0408219 82.12899057 57.86477935 79.98232306 56.28515625 76.9765625 C54.4870644 74.14824721 51.76894409 72.34742332 49.1875 70.25 C48.56875 69.30125 47.95 68.3525 47.3125 67.375 C44.95280986 63.90486745 42.33730073 61.6030153 39.1484375 58.91796875 C36.68864312 56.82567353 34.43758445 54.56437258 32.1875 52.25 C31.589375 51.693125 30.99125 51.13625 30.375 50.5625 C29.1875 49.25 29.1875 49.25 29.1875 47.25 C28.1975 46.92 27.2075 46.59 26.1875 46.25 C24.78515625 44.7890625 24.78515625 44.7890625 23.25 42.875 C16.26013042 34.65597963 8.44673986 27.76993145 -0.8125 22.25 C-0.8125 21.59 -0.8125 20.93 -0.8125 20.25 C-1.51761719 20.01539062 -2.22273437 19.78078125 -2.94921875 19.5390625 C-6.34453191 18.01047677 -8.78188922 16.02280427 -11.625 13.625 C-12.60082031 12.80773437 -13.57664062 11.99046875 -14.58203125 11.1484375 C-15.31808594 10.52195312 -16.05414062 9.89546875 -16.8125 9.25 C-15.24547903 4.8508402 -14.09574588 3.2896409 -9.8125 1.25 C-6.52781253 0.22398049 -3.43321706 0.05288653 0 0 Z " fill="#696E75" transform="translate(665.8125,74.75)"/>
<path d="M0 0 C0.66 0.33 1.32 0.66 2 1 C0.625 3 0.625 3 -1 5 C-1.66 5 -2.32 5 -3 5 C-3.061875 5.5775 -3.12375 6.155 -3.1875 6.75 C-4.32027301 9.88690987 -6.34197595 11.09167504 -9 13 C-6.9690712 7.53211476 -4.98193544 3.26402667 0 0 Z " fill="#686D71" transform="translate(174,83)"/>
<path d="M0 0 C0.66 0.99 1.32 1.98 2 3 C-1.44615385 7.8 -1.44615385 7.8 -4.25 8.8125 C-4.8275 8.874375 -5.405 8.93625 -6 9 C-2.25 2.25 -2.25 2.25 0 0 Z " fill="#545A5F" transform="translate(346,294)"/>
<path d="M0 0 C1.4384798 0.06423833 2.87666999 0.14163547 4.3125 0.25 C1.45771674 2.15318884 -0.10691308 2.7119099 -3.375 3.375 C-4.18324219 3.54257812 -4.99148438 3.71015625 -5.82421875 3.8828125 C-6.43910156 4.00398437 -7.05398438 4.12515625 -7.6875 4.25 C-5.84004374 0.30875998 -4.09551026 -0.02575793 0 0 Z " fill="#4A5059" transform="translate(466.6875,563.75)"/>
<path d="M0 0 C0 0.66 0 1.32 0 2 C-6.93 1.505 -6.93 1.505 -14 1 C-14 0.67 -14 0.34 -14 0 C-8.97874074 -0.77916092 -5.02296004 -1.13016601 0 0 Z " fill="#5F6569" transform="translate(379,855)"/>
<path d="M0 0 C0.33 0 0.66 0 1 0 C1.05428973 2.22889496 1.09292338 4.45817471 1.125 6.6875 C1.14820313 7.92886719 1.17140625 9.17023438 1.1953125 10.44921875 C1.01032021 13.81237857 0.45767895 15.9985587 -1 19 C-1.33 19 -1.66 19 -2 19 C-1.85761163 16.95809019 -1.71092972 14.91647955 -1.5625 12.875 C-1.48128906 11.73804688 -1.40007812 10.60109375 -1.31640625 9.4296875 C-1.02269035 6.2459522 -0.56875687 3.14489093 0 0 Z " fill="#676971" transform="translate(5,359)"/>
<path d="M0 0 C0 3.77910478 -0.99703962 4.46106101 -3.5 7.1875 C-4.1496875 7.90292969 -4.799375 8.61835937 -5.46875 9.35546875 C-5.9740625 9.89816406 -6.479375 10.44085937 -7 11 C-7.66 10.67 -8.32 10.34 -9 10 C-6.03 6.7 -3.06 3.4 0 0 Z " fill="#5E666E" transform="translate(719,711)"/>
<path d="M0 0 C0.71484375 1.734375 0.71484375 1.734375 1 4 C-0.43359375 6.140625 -0.43359375 6.140625 -2.4375 8.25 C-3.09621094 8.95640625 -3.75492187 9.6628125 -4.43359375 10.390625 C-4.95050781 10.92171875 -5.46742187 11.4528125 -6 12 C-6 8.36804504 -5.04546845 7.25286089 -3 4.3125 C-2.443125 3.50425781 -1.88625 2.69601562 -1.3125 1.86328125 C-0.879375 1.24839844 -0.44625 0.63351562 0 0 Z " fill="#D4DADF" transform="translate(94,526)"/>
<path d="M0 0 C0.99 0 1.98 0 3 0 C3 3 3 3 1.6875 4.38671875 C0.125 5.59114583 -1.4375 6.79557292 -3 8 C-3.66 7.67 -4.32 7.34 -5 7 C-4.24172908 5.82512964 -3.46792245 4.66027408 -2.6875 3.5 C-2.25824219 2.8503125 -1.82898438 2.200625 -1.38671875 1.53125 C-0.70029297 0.77328125 -0.70029297 0.77328125 0 0 Z " fill="#4B5158" transform="translate(268,401)"/>
<path d="M0 0 C2.29633824 3.44450737 2.54016485 5.93812283 3 10 C1.68 9.67 0.36 9.34 -1 9 C-0.67 6.03 -0.34 3.06 0 0 Z " fill="#8B8E93" transform="translate(837,290)"/>
<path d="M0 0 C0.66 0 1.32 0 2 0 C1.01 2.97 0.02 5.94 -1 9 C-1.66 7.68 -2.32 6.36 -3 5 C-2.34 5 -1.68 5 -1 5 C-0.67 3.35 -0.34 1.7 0 0 Z " fill="#7C8084" transform="translate(825,596)"/>
<path d="M0 0 C0.33 0.99 0.66 1.98 1 3 C-0.40445835 5.2636564 -2.1967913 7.0208685 -4 9 C-4.66 8.67 -5.32 8.34 -6 8 C-4.02 5.36 -2.04 2.72 0 0 Z " fill="#CED4D9" transform="translate(135,470)"/>
<path d="M0 0 C0.33 0.66 0.66 1.32 1 2 C0.0625 4.625 0.0625 4.625 -1 7 C-1.99 7 -2.98 7 -4 7 C-2.92598892 4.08482708 -2.22189824 2.22189824 0 0 Z " fill="#53595F" transform="translate(314,338)"/>
</svg>
